<?xml version="1.0" encoding="UTF-8"?>
<svg xmlns="http://www.w3.org/2000/svg" xmlns:xlink="http://www.w3.org/1999/xlink" width="209px" height="px" viewBox="0 0 208 48" version="1.1">
<defs>
<linearGradient id="linear0" gradientUnits="userSpaceOnUse" x1="-13.5189" y1="138" x2="167.0203" y2="138" gradientTransform="matrix(0.173039,0,0,0.173617,0.1768,0)">
<stop offset="0" style="stop-color:rgb(84.705882%,24.313725%,21.176471%);stop-opacity:1;"/>
<stop offset="1" style="stop-color:rgb(63.137255%,11.372549%,12.941176%);stop-opacity:1;"/>
</linearGradient>
<linearGradient id="linear1" gradientUnits="userSpaceOnUse" x1="47.3646" y1="115.0976" x2="45.6785" y2="53.3868" gradientTransform="matrix(0.173039,0,0,0.173617,0.1768,0)">
<stop offset="0" style="stop-color:rgb(73.333333%,27.058824%,23.137255%);stop-opacity:1;"/>
<stop offset="1" style="stop-color:rgb(54.117647%,9.411765%,10.196078%);stop-opacity:1;"/>
</linearGradient>
<linearGradient id="linear2" gradientUnits="userSpaceOnUse" x1="45.6714" y1="163.7785" x2="46.0087" y2="233.5825" gradientTransform="matrix(0.173039,0,0,0.173617,0.1768,0)">
<stop offset="0" style="stop-color:rgb(73.333333%,27.058824%,23.137255%);stop-opacity:1;"/>
<stop offset="1" style="stop-color:rgb(54.117647%,9.411765%,10.196078%);stop-opacity:1;"/>
</linearGradient>
<linearGradient id="linear3" gradientUnits="userSpaceOnUse" x1="44.1287" y1="78.5034" x2="51.1735" y2="114.2695" gradientTransform="matrix(0.173039,0,0,0.173617,0.1768,0)">
<stop offset="0" style="stop-color:rgb(73.333333%,27.058824%,23.137255%);stop-opacity:1;"/>
<stop offset="1" style="stop-color:rgb(54.117647%,9.411765%,10.196078%);stop-opacity:1;"/>
</linearGradient>
<linearGradient id="linear4" gradientUnits="userSpaceOnUse" x1="43.8932" y1="195.7414" x2="50.3961" y2="171.8973" gradientTransform="matrix(0.173039,0,0,0.173617,0.1768,0)">
<stop offset="0" style="stop-color:rgb(73.333333%,27.058824%,23.137255%);stop-opacity:1;"/>
<stop offset="1" style="stop-color:rgb(54.117647%,9.411765%,10.196078%);stop-opacity:1;"/>
</linearGradient>
</defs>
<g id="surface1">
<path style=" stroke:none;fill-rule:nonzero;fill:url(#linear0);" d="M 18.230469 23.960938 L 38.222656 44.015625 L 23.925781 44.015625 L 14.347656 34.40625 C 13.953125 33.996094 13.570312 33.609375 13.1875 33.246094 C 10.351562 30.535156 7.867188 29.164062 5.789062 29.164062 C 4.757812 29.164062 3.832031 29.503906 3.078125 30.152344 L 3.078125 24.871094 C 3.078125 24.835938 3.078125 24.800781 3.078125 24.765625 C 3.082031 24.519531 3.097656 24.273438 3.128906 24.039062 L 3.136719 23.960938 L 3.128906 23.878906 C 3.097656 23.640625 3.082031 23.398438 3.078125 23.152344 C 3.078125 23.117188 3.078125 23.082031 3.078125 23.046875 L 3.078125 17.765625 C 3.832031 18.414062 4.757812 18.753906 5.789062 18.753906 C 7.867188 18.753906 10.351562 17.378906 13.1875 14.667969 C 13.566406 14.304688 13.953125 13.921875 14.347656 13.507812 L 23.925781 3.898438 L 38.222656 3.898438 Z M 18.230469 23.960938 "/>
<path style=" stroke:none;fill-rule:nonzero;fill:url(#linear1);" d="M 13.1875 6.855469 L 13.1875 12.765625 C 9.484375 16.589844 7.125 17.402344 5.789062 17.402344 C 3.996094 17.402344 3.25 15.9375 3.078125 15.539062 C 3.078125 15.539062 3.078125 15.535156 3.078125 15.535156 L 3.078125 3.902344 Z M 13.1875 6.855469 "/>
<path style=" stroke:none;fill-rule:nonzero;fill:url(#linear2);" d="M 13.1875 35.152344 L 13.1875 41.066406 L 3.078125 44.015625 L 3.078125 32.382812 C 3.246094 31.984375 3.996094 30.519531 5.789062 30.519531 C 7.125 30.515625 9.484375 31.328125 13.1875 35.152344 Z M 13.1875 35.152344 "/>
<path style=" stroke:none;fill-rule:nonzero;fill:url(#linear3);" d="M 13.1875 12.765625 L 13.1875 14.671875 C 10.351562 17.382812 7.867188 18.757812 5.789062 18.757812 C 4.757812 18.757812 3.832031 18.414062 3.078125 17.765625 L 3.078125 15.539062 C 3.25 15.9375 3.996094 17.402344 5.789062 17.402344 C 7.125 17.402344 9.484375 16.589844 13.1875 12.765625 Z M 13.1875 12.765625 "/>
<path style=" stroke:none;fill-rule:nonzero;fill:url(#linear4);" d="M 13.1875 33.246094 L 13.1875 35.152344 C 9.484375 31.328125 7.125 30.515625 5.789062 30.515625 C 3.996094 30.515625 3.246094 31.984375 3.078125 32.378906 L 3.078125 30.152344 C 3.832031 29.503906 4.757812 29.164062 5.789062 29.164062 C 7.867188 29.164062 10.351562 30.535156 13.1875 33.246094 Z M 13.1875 33.246094 "/>
<path style=" stroke:none;fill-rule:nonzero;fill:rgb(13.72549%,12.156863%,12.54902%);fill-opacity:1;" d="M 56.582031 16.175781 C 54.769531 15.421875 52.777344 15.039062 50.65625 15.039062 C 48.539062 15.039062 46.554688 15.421875 44.757812 16.175781 C 43.039062 16.898438 41.527344 17.941406 40.265625 19.28125 C 37.792969 21.898438 36.433594 25.5 36.433594 29.421875 C 36.433594 33.375 37.78125 36.984375 40.230469 39.578125 C 42.835938 42.34375 46.460938 43.800781 50.710938 43.800781 C 52.867188 43.800781 54.882812 43.421875 56.695312 42.671875 C 58.429688 41.953125 59.953125 40.914062 61.21875 39.578125 C 63.683594 36.980469 65.042969 33.371094 65.042969 29.417969 C 65.042969 25.511719 63.652344 21.910156 61.128906 19.277344 C 59.847656 17.941406 58.316406 16.898438 56.582031 16.175781 Z M 50.710938 36.699219 C 46.105469 36.699219 44.046875 33.042969 44.046875 29.421875 C 44.046875 25.886719 46.128906 22.085938 50.710938 22.085938 C 54.882812 22.085938 57.375 25.816406 57.375 29.421875 C 57.375 33.042969 55.316406 36.699219 50.710938 36.699219 Z M 50.710938 36.699219 "/>
<path style=" stroke:none;fill-rule:nonzero;fill:rgb(13.72549%,12.156863%,12.54902%);fill-opacity:1;" d="M 84.183594 15.148438 C 82.457031 15.148438 80.878906 15.492188 79.367188 16.203125 C 78.191406 16.753906 77.046875 17.527344 75.886719 18.5625 L 75.523438 15.523438 L 68.667969 15.523438 L 68.667969 43.207031 L 76.226562 43.207031 L 76.226562 29.097656 C 76.226562 25.160156 78.90625 22.195312 82.464844 22.195312 C 86.785156 22.195312 88.324219 25.59375 88.324219 28.773438 L 88.324219 43.207031 L 95.9375 43.207031 L 95.9375 28.71875 C 95.9375 24.613281 94.753906 21.148438 92.519531 18.710938 C 90.421875 16.410156 87.460938 15.148438 84.183594 15.148438 Z M 84.183594 15.148438 "/>
<path style=" stroke:none;fill-rule:nonzero;fill:rgb(13.72549%,12.156863%,12.54902%);fill-opacity:1;" d="M 115.921875 15.148438 C 114.195312 15.148438 112.617188 15.492188 111.105469 16.203125 C 109.929688 16.753906 108.785156 17.527344 107.625 18.5625 L 107.261719 15.523438 L 100.40625 15.523438 L 100.40625 43.207031 L 107.964844 43.207031 L 107.964844 29.097656 C 107.964844 25.160156 110.644531 22.195312 114.199219 22.195312 C 118.519531 22.195312 120.058594 25.59375 120.058594 28.773438 L 120.058594 43.207031 L 127.671875 43.207031 L 127.671875 28.71875 C 127.671875 24.613281 126.492188 21.148438 124.257812 18.710938 C 122.160156 16.410156 119.195312 15.148438 115.921875 15.148438 Z M 115.921875 15.148438 "/>
<path style=" stroke:none;fill-rule:nonzero;fill:rgb(13.72549%,12.156863%,12.54902%);fill-opacity:1;" d="M 156.285156 18.855469 C 153.859375 16.183594 150.191406 14.769531 145.679688 14.769531 C 141.371094 14.769531 137.691406 16.179688 135.046875 18.847656 C 133.769531 20.136719 132.78125 21.679688 132.105469 23.429688 C 131.425781 25.199219 131.082031 27.140625 131.082031 29.207031 C 131.082031 33.574219 132.464844 37.257812 135.089844 39.863281 C 137.757812 42.511719 141.585938 43.910156 146.164062 43.910156 C 150.773438 43.910156 155.285156 42.195312 157.929688 39.433594 L 158.292969 39.058594 L 153.351562 34.160156 L 152.980469 34.546875 C 151.53125 36.050781 148.441406 36.863281 146.273438 36.863281 C 142.410156 36.863281 139.6875 35.121094 139.015625 32.273438 L 159.535156 32.273438 L 159.582031 31.789062 C 159.84375 28.988281 159.6875 26.457031 159.113281 24.265625 C 158.558594 22.128906 157.605469 20.308594 156.285156 18.855469 Z M 139.222656 25.761719 C 140.242188 23.140625 142.632812 21.65625 145.894531 21.65625 C 147.9375 21.65625 151.363281 22.207031 152.140625 25.761719 Z M 139.222656 25.761719 "/>
<path style=" stroke:none;fill-rule:nonzero;fill:rgb(13.72549%,12.156863%,12.54902%);fill-opacity:1;" d="M 163.921875 4.480469 L 171.480469 4.480469 L 171.480469 43.207031 L 163.921875 43.207031 Z M 163.921875 4.480469 "/>
<path style=" stroke:none;fill-rule:nonzero;fill:rgb(13.72549%,12.156863%,12.54902%);fill-opacity:1;" d="M 197.765625 15.578125 L 197.609375 18.253906 C 196.875 17.425781 195.9375 16.710938 194.839844 16.15625 C 193.261719 15.355469 191.457031 14.933594 189.625 14.933594 C 187.558594 14.917969 185.617188 15.238281 183.859375 15.882812 C 182.0625 16.542969 180.496094 17.53125 179.207031 18.8125 C 176.644531 21.367188 175.289062 25.015625 175.289062 29.367188 C 175.289062 33.898438 176.65625 37.65625 179.238281 40.234375 C 181.722656 42.710938 185.210938 44.015625 189.328125 44.015625 C 189.371094 44.015625 189.417969 44.015625 189.460938 44.015625 L 189.46875 44.015625 C 192.296875 43.964844 195.730469 42.710938 197.648438 40.386719 L 197.882812 43.207031 L 205.078125 43.207031 L 205.078125 15.578125 Z M 197.414062 29.394531 C 197.414062 31.375 196.769531 33.21875 195.605469 34.585938 C 194.304688 36.109375 192.4375 36.917969 190.210938 36.917969 C 185.835938 36.917969 182.902344 33.882812 182.902344 29.367188 C 182.902344 24.882812 185.839844 21.867188 190.210938 21.867188 C 195.160156 21.871094 197.414062 25.769531 197.414062 29.394531 Z M 197.414062 29.394531 "/>
</g>
</svg>
