<?xml version="1.0" encoding="UTF-8"?>
<svg xmlns="http://www.w3.org/2000/svg" xmlns:xlink="http://www.w3.org/1999/xlink" width="209px" height="px" viewBox="0 0 209 47" version="1.1">
<defs>
<linearGradient id="linear0" gradientUnits="userSpaceOnUse" x1="-8.845" y1="136.9055" x2="170.8004" y2="136.9055" gradientTransform="matrix(0.17396,0,0,0.174514,0.124165,0)">
<stop offset="0" style="stop-color:rgb(84.705882%,24.313725%,21.176471%);stop-opacity:1;"/>
<stop offset="1" style="stop-color:rgb(63.137255%,11.372549%,12.941176%);stop-opacity:1;"/>
</linearGradient>
<linearGradient id="linear1" gradientUnits="userSpaceOnUse" x1="51.7554" y1="113.8173" x2="50.0555" y2="51.6008" gradientTransform="matrix(0.17396,0,0,0.174514,0.124165,0)">
<stop offset="0" style="stop-color:rgb(73.333333%,27.058824%,23.137255%);stop-opacity:1;"/>
<stop offset="1" style="stop-color:rgb(54.117647%,9.411765%,10.196078%);stop-opacity:1;"/>
</linearGradient>
<linearGradient id="linear2" gradientUnits="userSpaceOnUse" x1="50.0482" y1="162.8979" x2="50.3882" y2="233.28" gradientTransform="matrix(0.17396,0,0,0.174514,0.124165,0)">
<stop offset="0" style="stop-color:rgb(73.333333%,27.058824%,23.137255%);stop-opacity:1;"/>
<stop offset="1" style="stop-color:rgb(54.117647%,9.411765%,10.196078%);stop-opacity:1;"/>
</linearGradient>
<linearGradient id="linear3" gradientUnits="userSpaceOnUse" x1="48.4775" y1="76.8397" x2="55.606" y2="113.0305" gradientTransform="matrix(0.17396,0,0,0.174514,0.124165,0)">
<stop offset="0" style="stop-color:rgb(73.333333%,27.058824%,23.137255%);stop-opacity:1;"/>
<stop offset="1" style="stop-color:rgb(54.117647%,9.411765%,10.196078%);stop-opacity:1;"/>
</linearGradient>
<linearGradient id="linear4" gradientUnits="userSpaceOnUse" x1="48.2261" y1="195.231" x2="54.8165" y2="171.0665" gradientTransform="matrix(0.17396,0,0,0.174514,0.124165,0)">
<stop offset="0" style="stop-color:rgb(73.333333%,27.058824%,23.137255%);stop-opacity:1;"/>
<stop offset="1" style="stop-color:rgb(54.117647%,9.411765%,10.196078%);stop-opacity:1;"/>
</linearGradient>
</defs>
<g id="surface1">
<path style=" stroke:none;fill-rule:nonzero;fill:url(#linear0);" d="M 18.988281 23.890625 L 38.984375 44.21875 L 24.679688 44.21875 L 15.101562 34.480469 C 14.707031 34.066406 14.324219 33.671875 13.945312 33.304688 C 11.105469 30.558594 8.617188 29.167969 6.542969 29.167969 C 5.511719 29.167969 4.585938 29.511719 3.828125 30.167969 L 3.828125 24.816406 C 3.828125 24.78125 3.828125 24.746094 3.828125 24.710938 C 3.832031 24.460938 3.847656 24.214844 3.878906 23.972656 L 3.886719 23.894531 L 3.878906 23.8125 C 3.851562 23.570312 3.835938 23.324219 3.828125 23.074219 C 3.828125 23.039062 3.828125 23.003906 3.828125 22.96875 L 3.828125 17.613281 C 4.585938 18.273438 5.511719 18.617188 6.542969 18.617188 C 8.617188 18.617188 11.105469 17.226562 13.945312 14.476562 C 14.324219 14.109375 14.707031 13.71875 15.101562 13.304688 L 24.679688 3.5625 L 38.984375 3.5625 Z M 18.988281 23.890625 "/>
<path style=" stroke:none;fill-rule:nonzero;fill:url(#linear1);" d="M 13.941406 6.554688 L 13.941406 12.546875 C 10.234375 16.421875 7.875 17.246094 6.542969 17.246094 C 4.746094 17.246094 4 15.761719 3.828125 15.355469 L 3.828125 3.566406 Z M 13.941406 6.554688 "/>
<path style=" stroke:none;fill-rule:nonzero;fill:url(#linear2);" d="M 13.941406 35.238281 L 13.941406 41.230469 L 3.828125 44.21875 L 3.828125 32.425781 C 3.996094 32.027344 4.746094 30.539062 6.539062 30.539062 C 7.875 30.539062 10.238281 31.359375 13.941406 35.238281 Z M 13.941406 35.238281 "/>
<path style=" stroke:none;fill-rule:nonzero;fill:url(#linear3);" d="M 13.941406 12.546875 L 13.941406 14.476562 C 11.101562 17.226562 8.617188 18.617188 6.539062 18.617188 C 5.507812 18.617188 4.582031 18.273438 3.828125 17.613281 L 3.828125 15.359375 C 4 15.761719 4.746094 17.246094 6.539062 17.246094 C 7.875 17.246094 10.234375 16.421875 13.941406 12.546875 Z M 13.941406 12.546875 "/>
<path style=" stroke:none;fill-rule:nonzero;fill:url(#linear4);" d="M 13.941406 33.304688 L 13.941406 35.238281 C 10.234375 31.359375 7.875 30.539062 6.542969 30.539062 C 4.746094 30.539062 4 32.027344 3.828125 32.425781 L 3.828125 30.167969 C 4.585938 29.511719 5.511719 29.167969 6.542969 29.167969 C 8.617188 29.167969 11.101562 30.558594 13.941406 33.304688 Z M 13.941406 33.304688 "/>
<path style=" stroke:none;fill-rule:nonzero;fill:rgb(100%,100%,100%);fill-opacity:1;" d="M 57.351562 16.003906 C 55.539062 15.242188 53.546875 14.851562 51.425781 14.851562 C 49.304688 14.851562 47.320312 15.242188 45.519531 16.003906 C 43.800781 16.734375 42.289062 17.792969 41.027344 19.152344 C 38.554688 21.804688 37.191406 25.453125 37.191406 29.425781 C 37.191406 33.433594 38.542969 37.089844 40.992188 39.722656 C 43.597656 42.523438 47.222656 44 51.476562 44 C 53.632812 44 55.648438 43.617188 57.460938 42.855469 C 59.199219 42.132812 60.71875 41.078125 61.984375 39.722656 C 64.453125 37.085938 65.8125 33.429688 65.8125 29.425781 C 65.8125 25.464844 64.421875 21.8125 61.894531 19.148438 C 60.617188 17.792969 59.085938 16.734375 57.351562 16.003906 Z M 51.476562 36.804688 C 46.871094 36.804688 44.808594 33.097656 44.808594 29.425781 C 44.808594 25.847656 46.894531 21.992188 51.476562 21.992188 C 55.648438 21.992188 58.144531 25.773438 58.144531 29.425781 C 58.144531 33.101562 56.082031 36.804688 51.476562 36.804688 Z M 51.476562 36.804688 "/>
<path style=" stroke:none;fill-rule:nonzero;fill:rgb(100%,100%,100%);fill-opacity:1;" d="M 84.960938 14.960938 C 83.234375 14.960938 81.65625 15.3125 80.144531 16.03125 C 78.96875 16.589844 77.820312 17.375 76.660156 18.421875 L 76.300781 15.347656 L 69.441406 15.347656 L 69.441406 43.402344 L 77.003906 43.402344 L 77.003906 29.101562 C 77.003906 25.109375 79.6875 22.105469 83.242188 22.105469 C 87.5625 22.105469 89.105469 25.546875 89.105469 28.773438 L 89.105469 43.398438 L 96.71875 43.398438 L 96.71875 28.714844 C 96.71875 24.554688 95.539062 21.042969 93.304688 18.570312 C 91.203125 16.242188 88.238281 14.960938 84.960938 14.960938 Z M 84.960938 14.960938 "/>
<path style=" stroke:none;fill-rule:nonzero;fill:rgb(100%,100%,100%);fill-opacity:1;" d="M 116.707031 14.960938 C 114.980469 14.960938 113.40625 15.3125 111.890625 16.03125 C 110.714844 16.589844 109.570312 17.375 108.410156 18.421875 L 108.046875 15.347656 L 101.191406 15.347656 L 101.191406 43.402344 L 108.75 43.402344 L 108.75 29.101562 C 108.75 25.109375 111.433594 22.105469 114.988281 22.105469 C 119.3125 22.105469 120.851562 25.546875 120.851562 28.773438 L 120.851562 43.398438 L 128.46875 43.398438 L 128.46875 28.714844 C 128.46875 24.554688 127.285156 21.042969 125.050781 18.570312 C 122.949219 16.242188 119.988281 14.960938 116.707031 14.960938 Z M 116.707031 14.960938 "/>
<path style=" stroke:none;fill-rule:nonzero;fill:rgb(100%,100%,100%);fill-opacity:1;" d="M 157.085938 18.71875 C 154.660156 16.011719 150.996094 14.582031 146.480469 14.582031 C 142.167969 14.582031 138.488281 16.011719 135.84375 18.714844 C 134.566406 20.019531 133.578125 21.582031 132.902344 23.359375 C 132.222656 25.148438 131.875 27.121094 131.875 29.210938 C 131.875 33.636719 133.261719 37.371094 135.886719 40.011719 C 138.554688 42.695312 142.386719 44.113281 146.964844 44.113281 C 151.578125 44.113281 156.085938 42.375 158.738281 39.578125 L 159.101562 39.195312 L 154.15625 34.230469 L 153.78125 34.625 C 152.335938 36.148438 149.246094 36.972656 147.074219 36.972656 C 143.210938 36.972656 140.488281 35.203125 139.8125 32.316406 L 160.339844 32.316406 L 160.386719 31.828125 C 160.648438 28.988281 160.492188 26.421875 159.917969 24.203125 C 159.359375 22.039062 158.410156 20.191406 157.085938 18.71875 Z M 140.019531 25.71875 C 141.039062 23.0625 143.433594 21.554688 146.695312 21.554688 C 148.738281 21.554688 152.164062 22.113281 152.941406 25.71875 Z M 140.019531 25.71875 "/>
<path style=" stroke:none;fill-rule:nonzero;fill:rgb(100%,100%,100%);fill-opacity:1;" d="M 164.726562 4.148438 L 172.289062 4.148438 L 172.289062 43.398438 L 164.726562 43.398438 Z M 164.726562 4.148438 "/>
<path style=" stroke:none;fill-rule:nonzero;fill:rgb(100%,100%,100%);fill-opacity:1;" d="M 198.582031 15.398438 L 198.425781 18.109375 C 197.691406 17.269531 196.753906 16.546875 195.65625 15.980469 C 194.078125 15.171875 192.269531 14.742188 190.4375 14.742188 C 188.371094 14.730469 186.429688 15.054688 184.671875 15.707031 C 182.871094 16.378906 181.308594 17.375 180.019531 18.675781 C 177.453125 21.265625 176.097656 24.964844 176.097656 29.371094 C 176.097656 33.964844 177.464844 37.773438 180.050781 40.382812 C 182.535156 42.894531 186.019531 44.214844 190.140625 44.214844 C 190.1875 44.214844 190.234375 44.214844 190.277344 44.214844 L 190.28125 44.214844 C 193.113281 44.164062 196.546875 42.894531 198.464844 40.542969 L 198.699219 43.398438 L 205.898438 43.398438 L 205.898438 15.398438 Z M 198.230469 29.398438 C 198.230469 31.410156 197.589844 33.277344 196.425781 34.660156 C 195.125 36.207031 193.257812 37.023438 191.027344 37.023438 C 186.652344 37.023438 183.714844 33.949219 183.714844 29.371094 C 183.714844 24.828125 186.652344 21.777344 191.027344 21.777344 C 195.976562 21.777344 198.230469 25.726562 198.230469 29.398438 Z M 198.230469 29.398438 "/>
</g>
</svg>
