<svg width="0" height="0" class="hidden">
  <symbol xmlns="http://www.w3.org/2000/svg" xmlns:xlink="http://www.w3.org/1999/xlink" version="1.1" xml:space="preserve" viewBox="0 0 256 256" id="phone">
    <defs></defs>
    <g transform="translate(1.4065934065934016 1.4065934065934016) scale(2.81 2.81)">
      <path d="M 16.639 2.864 c 0.071 0 0.142 0.001 0.215 0.003 c 0.131 0.003 0.261 0.011 0.388 0.019 c 0.171 0.011 0.342 0.024 0.513 0.044 c 0.137 0.016 0.273 0.038 0.409 0.059 c 0.162 0.026 0.323 0.051 0.487 0.086 c 0.129 0.027 0.255 0.061 0.425 0.104 l 0.056 0.015 c 0.133 0.034 0.266 0.067 0.398 0.108 c 0.123 0.038 0.244 0.084 0.366 0.128 l 0.076 0.028 l 0.124 0.045 c 0.098 0.035 0.197 0.07 0.294 0.11 c 0.122 0.051 0.242 0.11 0.362 0.168 l 0.094 0.045 l 0.165 0.078 c 0.072 0.034 0.144 0.066 0.215 0.104 c 0.125 0.067 0.246 0.143 0.368 0.217 l 0.099 0.061 l 0.192 0.115 c 0.047 0.028 0.096 0.054 0.143 0.086 c 0.153 0.102 0.3 0.217 0.447 0.33 l 0.054 0.041 c 0.067 0.051 0.135 0.101 0.203 0.15 l 0.059 0.042 c 0.257 0.21 0.499 0.429 0.72 0.649 l 8.159 8.159 c 0.221 0.221 0.439 0.463 0.641 0.709 l 0.053 0.072 c 0.049 0.068 0.098 0.135 0.149 0.202 l 0.046 0.061 c 0.111 0.145 0.223 0.288 0.324 0.44 c 0.032 0.048 0.059 0.098 0.088 0.147 l 0.112 0.188 l 0.063 0.103 c 0.074 0.12 0.149 0.24 0.215 0.365 c 0.038 0.071 0.071 0.144 0.104 0.216 l 0.077 0.163 l 0.046 0.096 c 0.057 0.119 0.116 0.238 0.167 0.36 c 0.04 0.095 0.073 0.192 0.108 0.289 l 0.046 0.127 l 0.028 0.076 c 0.045 0.122 0.09 0.244 0.129 0.37 c 0.04 0.128 0.072 0.258 0.105 0.388 l 0.024 0.095 c 0.034 0.132 0.069 0.264 0.098 0.399 c 0.034 0.159 0.059 0.319 0.084 0.48 c 0.022 0.138 0.044 0.275 0.06 0.415 c 0.02 0.17 0.032 0.34 0.043 0.509 c 0.008 0.13 0.016 0.259 0.019 0.389 c 0.004 0.179 0.003 0.358 -0.002 0.536 c -0.004 0.121 -0.009 0.242 -0.017 0.364 c -0.012 0.187 -0.03 0.373 -0.052 0.555 c -0.014 0.111 -0.03 0.222 -0.048 0.334 c -0.031 0.194 -0.065 0.386 -0.107 0.577 c -0.02 0.09 -0.043 0.178 -0.073 0.297 c -0.05 0.199 -0.104 0.398 -0.166 0.593 c -0.016 0.051 -0.035 0.101 -0.053 0.152 l -0.038 0.106 c -0.072 0.204 -0.146 0.407 -0.231 0.605 l -0.037 0.079 l -0.064 0.137 c -0.096 0.209 -0.194 0.416 -0.316 0.637 l -0.087 0.148 c -0.145 0.253 -0.259 0.439 -0.365 0.597 c -0.034 0.045 -0.067 0.09 -0.099 0.135 c -0.186 0.266 -0.343 0.474 -0.494 0.654 c -0.229 0.274 -0.408 0.473 -0.58 0.645 l -5.52 5.52 c -1.876 1.876 -1.876 4.927 0 6.803 l 23.86 23.86 c 0.909 0.909 2.117 1.409 3.402 1.409 c 1.285 0 2.493 -0.5 3.402 -1.409 l 5.52 -5.52 c 0.172 -0.172 0.371 -0.351 0.645 -0.581 c 0.181 -0.151 0.389 -0.309 0.654 -0.495 c 0.043 -0.03 0.085 -0.061 0.133 -0.097 c 0.16 -0.108 0.348 -0.223 0.604 -0.37 l 0.158 -0.095 c 0.204 -0.112 0.413 -0.21 0.624 -0.307 l 0.135 -0.063 l 0.074 -0.035 c 0.201 -0.086 0.405 -0.161 0.613 -0.234 l 0.106 -0.038 c 0.048 -0.017 0.096 -0.035 0.145 -0.051 c 0.198 -0.063 0.397 -0.117 0.629 -0.176 c 0.087 -0.022 0.174 -0.045 0.262 -0.064 c 0.193 -0.042 0.386 -0.077 0.583 -0.108 c 0.109 -0.017 0.218 -0.034 0.326 -0.047 c 0.187 -0.023 0.373 -0.04 0.565 -0.053 c 0.119 -0.008 0.239 -0.013 0.357 -0.017 c 0.108 -0.003 0.216 -0.005 0.325 -0.005 c 0.071 0 0.142 0.001 0.214 0.003 c 0.13 0.003 0.26 0.011 0.388 0.019 c 0.171 0.011 0.341 0.024 0.513 0.044 c 0.137 0.016 0.273 0.038 0.409 0.059 c 0.162 0.026 0.323 0.051 0.486 0.086 c 0.128 0.027 0.255 0.061 0.425 0.104 l 0.056 0.014 c 0.133 0.034 0.266 0.067 0.398 0.108 c 0.123 0.038 0.244 0.084 0.366 0.128 l 0.076 0.028 l 0.124 0.045 c 0.098 0.035 0.197 0.07 0.295 0.11 c 0.122 0.051 0.241 0.11 0.361 0.167 l 0.095 0.045 l 0.165 0.078 c 0.072 0.034 0.144 0.066 0.215 0.104 c 0.125 0.067 0.246 0.143 0.368 0.217 l 0.099 0.061 l 0.192 0.115 c 0.047 0.028 0.096 0.054 0.143 0.086 c 0.153 0.102 0.3 0.217 0.448 0.33 l 0.054 0.041 c 0.067 0.051 0.135 0.101 0.203 0.15 l 0.059 0.042 c 0.257 0.21 0.499 0.429 0.72 0.649 l 8.159 8.159 c 0.221 0.221 0.439 0.463 0.641 0.709 l 0.053 0.072 c 0.049 0.068 0.098 0.135 0.149 0.202 l 0.045 0.06 c 0.111 0.145 0.224 0.289 0.325 0.441 c 0.032 0.048 0.059 0.098 0.088 0.147 l 0.112 0.188 l 0.063 0.103 c 0.074 0.12 0.149 0.24 0.215 0.365 c 0.038 0.071 0.071 0.144 0.105 0.216 l 0.077 0.163 l 0.047 0.097 c 0.057 0.119 0.115 0.237 0.166 0.358 c 0.04 0.095 0.073 0.192 0.108 0.288 l 0.046 0.127 l 0.028 0.078 c 0.044 0.122 0.09 0.243 0.129 0.368 c 0.04 0.128 0.072 0.257 0.105 0.386 l 0.024 0.095 c 0.034 0.133 0.069 0.265 0.098 0.401 c 0.034 0.159 0.059 0.319 0.084 0.479 c 0.022 0.138 0.044 0.275 0.06 0.415 c 0.02 0.17 0.032 0.34 0.043 0.509 c 0.008 0.129 0.016 0.259 0.019 0.389 c 0.004 0.179 0.003 0.358 -0.002 0.535 c -0.004 0.121 -0.009 0.242 -0.017 0.364 c -0.012 0.187 -0.03 0.373 -0.052 0.555 c -0.014 0.111 -0.03 0.222 -0.048 0.334 c -0.031 0.194 -0.065 0.386 -0.107 0.577 c -0.02 0.09 -0.043 0.178 -0.073 0.297 c -0.05 0.2 -0.104 0.398 -0.166 0.593 c -0.016 0.051 -0.035 0.102 -0.053 0.152 l -0.038 0.106 c -0.072 0.204 -0.146 0.407 -0.231 0.605 l -0.037 0.079 l -0.064 0.137 c -0.096 0.209 -0.194 0.416 -0.316 0.637 l -0.087 0.148 c -0.145 0.253 -0.259 0.439 -0.365 0.597 c -0.034 0.045 -0.067 0.09 -0.099 0.135 c -0.186 0.266 -0.343 0.474 -0.494 0.653 c -0.229 0.274 -0.408 0.473 -0.58 0.645 l -0.026 0.026 l -0.026 0.027 c -3.996 4.199 -10.029 6.512 -16.988 6.512 c -12.981 0 -27.91 -7.839 -42.053 -22.089 C 10.839 50.511 3 35.464 3.138 22.403 C 3.21 15.59 5.522 9.675 9.649 5.749 l 0.027 -0.026 l 0.026 -0.026 c 0.172 -0.172 0.371 -0.351 0.645 -0.581 c 0.181 -0.151 0.389 -0.309 0.655 -0.495 c 0.043 -0.03 0.085 -0.061 0.133 -0.097 c 0.16 -0.108 0.348 -0.223 0.605 -0.37 l 0.158 -0.095 c 0.204 -0.112 0.413 -0.21 0.624 -0.307 l 0.135 -0.063 l 0.074 -0.035 c 0.201 -0.086 0.406 -0.161 0.613 -0.234 l 0.106 -0.038 c 0.049 -0.017 0.097 -0.035 0.145 -0.051 c 0.198 -0.063 0.397 -0.117 0.629 -0.176 c 0.087 -0.022 0.174 -0.045 0.262 -0.064 c 0.193 -0.042 0.386 -0.077 0.583 -0.108 c 0.109 -0.017 0.218 -0.034 0.325 -0.047 c 0.187 -0.023 0.373 -0.04 0.565 -0.053 c 0.119 -0.008 0.239 -0.013 0.357 -0.017 C 16.423 2.865 16.531 2.864 16.639 2.864 M 16.639 -0.136 c -0.138 0 -0.275 0.002 -0.413 0.006 c -0.157 0.005 -0.313 0.012 -0.469 0.022 c -0.244 0.016 -0.488 0.039 -0.731 0.069 C 14.883 -0.021 14.741 0 14.599 0.022 c -0.254 0.04 -0.506 0.086 -0.758 0.141 c -0.128 0.028 -0.255 0.061 -0.382 0.093 c -0.262 0.066 -0.522 0.137 -0.781 0.22 c -0.111 0.036 -0.221 0.077 -0.331 0.115 c -0.269 0.095 -0.536 0.194 -0.8 0.307 c -0.093 0.04 -0.184 0.085 -0.276 0.128 c -0.275 0.126 -0.548 0.257 -0.815 0.403 c -0.072 0.04 -0.142 0.084 -0.213 0.126 c -0.282 0.162 -0.56 0.329 -0.831 0.514 c -0.044 0.03 -0.086 0.065 -0.13 0.095 C 8.989 2.369 8.701 2.582 8.423 2.815 l 0 0 c -0.288 0.241 -0.572 0.49 -0.842 0.76 C -3.732 14.34 -4.744 39.272 23.096 66.904 c 16.498 16.622 32.035 22.96 44.167 22.96 c 8.188 0 14.824 -2.886 19.162 -7.444 c 0.27 -0.27 0.52 -0.554 0.76 -0.842 c 0 0 0 0 0 0 c 0.232 -0.277 0.444 -0.564 0.649 -0.855 c 0.032 -0.045 0.067 -0.088 0.098 -0.134 c 0.184 -0.27 0.35 -0.547 0.511 -0.827 c 0.042 -0.073 0.088 -0.144 0.128 -0.218 c 0.146 -0.266 0.276 -0.537 0.401 -0.811 c 0.043 -0.094 0.089 -0.186 0.13 -0.28 c 0.113 -0.262 0.211 -0.528 0.305 -0.796 c 0.039 -0.112 0.081 -0.223 0.117 -0.336 c 0.082 -0.257 0.153 -0.516 0.219 -0.777 c 0.033 -0.129 0.065 -0.257 0.094 -0.386 c 0.055 -0.25 0.1 -0.501 0.14 -0.754 c 0.023 -0.144 0.044 -0.287 0.062 -0.432 c 0.03 -0.242 0.052 -0.484 0.068 -0.727 c 0.01 -0.158 0.018 -0.315 0.022 -0.473 c 0.007 -0.233 0.008 -0.465 0.003 -0.698 c -0.004 -0.169 -0.013 -0.338 -0.024 -0.507 c -0.014 -0.222 -0.031 -0.444 -0.057 -0.665 c -0.021 -0.18 -0.049 -0.359 -0.077 -0.539 c -0.033 -0.21 -0.067 -0.419 -0.111 -0.627 c -0.04 -0.189 -0.089 -0.376 -0.137 -0.564 c -0.051 -0.197 -0.1 -0.393 -0.161 -0.587 c -0.061 -0.196 -0.133 -0.389 -0.203 -0.583 c -0.066 -0.182 -0.129 -0.365 -0.204 -0.545 c -0.084 -0.202 -0.181 -0.398 -0.276 -0.596 c -0.08 -0.167 -0.154 -0.335 -0.242 -0.498 c -0.111 -0.209 -0.238 -0.41 -0.361 -0.614 c -0.089 -0.146 -0.171 -0.296 -0.267 -0.439 c -0.15 -0.225 -0.317 -0.441 -0.483 -0.658 c -0.087 -0.114 -0.165 -0.232 -0.256 -0.343 c -0.265 -0.324 -0.548 -0.639 -0.85 -0.941 l -8.159 -8.159 c -0.302 -0.302 -0.617 -0.584 -0.941 -0.85 c -0.111 -0.091 -0.228 -0.168 -0.341 -0.255 c -0.218 -0.166 -0.434 -0.334 -0.66 -0.484 c -0.143 -0.095 -0.291 -0.176 -0.437 -0.265 c -0.204 -0.124 -0.406 -0.251 -0.615 -0.362 c -0.163 -0.087 -0.331 -0.162 -0.497 -0.241 c -0.198 -0.095 -0.396 -0.192 -0.598 -0.276 c -0.18 -0.075 -0.364 -0.138 -0.547 -0.205 c -0.193 -0.07 -0.384 -0.141 -0.58 -0.202 c -0.196 -0.061 -0.394 -0.111 -0.592 -0.162 c -0.186 -0.048 -0.372 -0.096 -0.559 -0.136 c -0.21 -0.044 -0.42 -0.079 -0.631 -0.112 c -0.178 -0.028 -0.356 -0.056 -0.535 -0.077 c -0.222 -0.026 -0.444 -0.043 -0.667 -0.057 c -0.169 -0.011 -0.337 -0.02 -0.506 -0.024 c -0.096 -0.002 -0.192 -0.003 -0.287 -0.003 c -0.138 0 -0.275 0.002 -0.413 0.006 c -0.157 0.005 -0.313 0.012 -0.469 0.022 c -0.244 0.016 -0.488 0.039 -0.731 0.069 c -0.143 0.018 -0.285 0.039 -0.428 0.061 c -0.254 0.04 -0.506 0.086 -0.758 0.141 c -0.128 0.028 -0.255 0.061 -0.382 0.093 c -0.262 0.066 -0.522 0.137 -0.781 0.22 c -0.111 0.036 -0.221 0.077 -0.331 0.115 c -0.269 0.095 -0.536 0.194 -0.8 0.307 c -0.093 0.04 -0.184 0.085 -0.276 0.128 c -0.275 0.126 -0.548 0.257 -0.815 0.403 c -0.072 0.04 -0.142 0.084 -0.213 0.126 c -0.282 0.162 -0.56 0.329 -0.831 0.514 c -0.044 0.03 -0.086 0.065 -0.13 0.095 c -0.293 0.205 -0.581 0.418 -0.859 0.651 l 0 0 c -0.288 0.241 -0.572 0.49 -0.842 0.76 l -5.52 5.52 c -0.354 0.354 -0.817 0.53 -1.28 0.53 c -0.463 0 -0.927 -0.177 -1.28 -0.53 L 28.272 37.867 c -0.707 -0.707 -0.707 -1.854 0 -2.561 l 5.52 -5.52 c 0.27 -0.27 0.52 -0.554 0.761 -0.842 c 0 0 0 0 0 0 c 0.232 -0.277 0.444 -0.564 0.649 -0.855 c 0.032 -0.045 0.067 -0.088 0.098 -0.134 c 0.184 -0.27 0.35 -0.547 0.511 -0.827 c 0.042 -0.073 0.088 -0.144 0.128 -0.218 c 0.146 -0.266 0.276 -0.537 0.401 -0.811 c 0.043 -0.094 0.089 -0.186 0.13 -0.28 c 0.113 -0.262 0.211 -0.528 0.305 -0.796 c 0.039 -0.112 0.081 -0.223 0.117 -0.336 c 0.082 -0.257 0.153 -0.516 0.219 -0.777 c 0.033 -0.129 0.065 -0.257 0.094 -0.386 c 0.055 -0.25 0.1 -0.501 0.14 -0.754 c 0.023 -0.144 0.044 -0.287 0.062 -0.432 c 0.03 -0.242 0.052 -0.484 0.068 -0.727 c 0.011 -0.158 0.018 -0.315 0.022 -0.473 c 0.007 -0.233 0.008 -0.465 0.003 -0.698 c -0.004 -0.169 -0.013 -0.338 -0.024 -0.507 c -0.014 -0.222 -0.031 -0.444 -0.057 -0.665 c -0.021 -0.18 -0.049 -0.359 -0.077 -0.539 c -0.033 -0.21 -0.068 -0.419 -0.111 -0.627 c -0.04 -0.189 -0.089 -0.376 -0.137 -0.564 c -0.051 -0.197 -0.1 -0.393 -0.161 -0.587 c -0.061 -0.196 -0.133 -0.389 -0.203 -0.583 c -0.066 -0.182 -0.129 -0.365 -0.204 -0.545 c -0.084 -0.202 -0.181 -0.398 -0.276 -0.596 c -0.08 -0.167 -0.154 -0.335 -0.242 -0.498 c -0.111 -0.209 -0.238 -0.41 -0.361 -0.614 c -0.089 -0.146 -0.171 -0.296 -0.267 -0.439 c -0.15 -0.225 -0.317 -0.441 -0.483 -0.658 c -0.087 -0.114 -0.165 -0.232 -0.256 -0.343 c -0.265 -0.324 -0.548 -0.639 -0.85 -0.941 l -8.159 -8.159 c -0.302 -0.302 -0.617 -0.584 -0.941 -0.85 c -0.111 -0.091 -0.228 -0.168 -0.342 -0.255 c -0.218 -0.166 -0.434 -0.334 -0.66 -0.484 c -0.143 -0.095 -0.291 -0.176 -0.437 -0.265 c -0.204 -0.124 -0.406 -0.251 -0.615 -0.362 c -0.163 -0.087 -0.331 -0.162 -0.497 -0.241 c -0.198 -0.095 -0.396 -0.192 -0.598 -0.276 c -0.18 -0.075 -0.364 -0.138 -0.547 -0.205 c -0.193 -0.07 -0.384 -0.141 -0.58 -0.202 c -0.196 -0.061 -0.394 -0.111 -0.592 -0.162 c -0.186 -0.048 -0.372 -0.096 -0.559 -0.136 c -0.21 -0.044 -0.42 -0.079 -0.631 -0.112 c -0.178 -0.028 -0.356 -0.056 -0.535 -0.077 c -0.222 -0.026 -0.444 -0.043 -0.667 -0.057 c -0.169 -0.011 -0.337 -0.02 -0.506 -0.024 C 16.831 -0.135 16.735 -0.136 16.639 -0.136 L 16.639 -0.136 z" transform=" matrix(1 0 0 1 0 0) " stroke-linecap="round"></path>
    </g>
  </symbol>
  <symbol xmlns="http://www.w3.org/2000/svg" xmlns:xlink="http://www.w3.org/1999/xlink" version="1.1" xml:space="preserve" viewBox="0 0 256 256" id="open-menu">
    <defs></defs>
    <g transform="translate(1.4065934065934016 1.4065934065934016) scale(2.81 2.81)">
      <rect x="0" y="15.64" rx="0" ry="0" width="90" height="4" transform=" matrix(1 0 0 1 0 0) "></rect>
      <rect x="0" y="43" rx="0" ry="0" width="90" height="4" transform=" matrix(1 0 0 1 0 0) "></rect>
      <rect x="0" y="70.36" rx="0" ry="0" width="90" height="4" transform=" matrix(1 0 0 1 0 0) "></rect>
    </g>
  </symbol>
  <symbol xmlns="http://www.w3.org/2000/svg" xmlns:xlink="http://www.w3.org/1999/xlink" version="1.1" xml:space="preserve" viewBox="0 0 256 256" id="twitter">
    <defs></defs>
    <g transform="translate(1.4065934065934016 1.4065934065934016) scale(2.81 2.81)">
      <path d="M 30.318 79.749 c -9.466 0 -18.684 -2.702 -26.659 -7.812 L 0 69.591 L 4.317 70.1 c 1.291 0.152 2.62 0.23 3.947 0.23 c 6.65 0 12.969 -1.91 18.428 -5.548 c -6.56 -1.122 -12.061 -5.799 -14.136 -12.275 l -0.515 -1.605 l 1.656 0.318 c 1.046 0.2 2.109 0.305 3.146 0.289 c -6.164 -2.93 -10.31 -9.231 -10.31 -16.302 c 0 -0.094 0 -0.183 0.005 -0.272 l 0.087 -1.598 l 1.398 0.778 c 1.218 0.678 2.524 1.193 3.873 1.532 C 8.577 32.3 6.672 27.756 6.672 22.936 c 0 -3.184 0.845 -6.32 2.443 -9.067 l 0.727 -1.25 l 0.913 1.121 c 8.213 10.075 20.223 16.353 33.117 17.353 c -0.142 -0.918 -0.214 -1.857 -0.214 -2.804 c 0 -9.946 8.094 -18.038 18.042 -18.038 c 4.778 0 9.402 1.923 12.773 5.293 c 3.512 -0.751 6.865 -2.064 9.973 -3.906 l 2.266 -1.343 l -0.803 2.509 c -0.903 2.823 -2.487 5.36 -4.59 7.408 c 1.898 -0.464 3.745 -1.093 5.524 -1.884 L 90 16.926 l -1.917 2.872 c -2.26 3.384 -5.055 6.329 -8.312 8.759 c 0.019 0.568 0.027 1.139 0.027 1.711 C 79.798 54.591 61.29 79.749 30.318 79.749 z M 8.317 72.331 c 6.775 3.554 14.303 5.416 22.002 5.416 c 29.719 0 47.479 -24.141 47.479 -47.48 c 0 -0.723 -0.015 -1.442 -0.047 -2.158 l -0.024 -0.54 l 0.438 -0.317 c 2.329 -1.683 4.414 -3.639 6.228 -5.84 c -2.202 0.722 -4.48 1.226 -6.808 1.505 l -4.647 0.555 l 4.013 -2.407 c 2.569 -1.541 4.638 -3.743 5.999 -6.348 c -2.736 1.337 -5.624 2.309 -8.618 2.898 l -0.543 0.107 l -0.38 -0.404 c -3.023 -3.221 -7.291 -5.068 -11.707 -5.068 c -8.845 0 -16.041 7.194 -16.041 16.037 c 0 1.25 0.14 2.48 0.415 3.657 l 0.303 1.294 l -1.327 -0.067 c -13.439 -0.675 -26.065 -6.854 -34.876 -17.015 c -0.985 2.115 -1.501 4.431 -1.501 6.778 c 0 5.377 2.668 10.368 7.137 13.351 l 2.906 1.94 l -3.492 -0.107 c -2.276 -0.07 -4.536 -0.582 -6.627 -1.493 c 0.624 7.005 5.816 12.902 12.803 14.301 l 4.156 0.833 l -4.089 1.114 c -2.081 0.566 -4.249 0.76 -6.425 0.556 c 2.488 5.693 8.088 9.488 14.404 9.605 l 2.814 0.053 l -2.215 1.735 C 23.789 69.725 16.277 72.319 8.317 72.331 z" transform=" matrix(1 0 0 1 0 0) " stroke-linecap="round"></path>
    </g>
  </symbol>
  <symbol xmlns="http://www.w3.org/2000/svg" xmlns:xlink="http://www.w3.org/1999/xlink" version="1.1" xml:space="preserve" viewBox="0 0 256 256" id="close-menu">
    <defs></defs>
    <g transform="translate(1.4065934065934016 1.4065934065934016) scale(2.81 2.81)">
      <path d="M 47.098 45 L 89.565 2.532 c 0.58 -0.579 0.58 -1.519 0 -2.098 c -0.579 -0.58 -1.518 -0.58 -2.098 0 L 45 42.902 L 2.532 0.435 c -0.58 -0.58 -1.518 -0.58 -2.098 0 c -0.58 0.579 -0.58 1.519 0 2.098 L 42.902 45 L 0.435 87.468 c -0.58 0.579 -0.58 1.518 0 2.098 C 0.724 89.855 1.104 90 1.484 90 s 0.759 -0.145 1.049 -0.435 L 45 47.098 l 42.468 42.468 c 0.29 0.29 0.669 0.435 1.049 0.435 s 0.759 -0.145 1.049 -0.435 c 0.58 -0.58 0.58 -1.518 0 -2.098 L 47.098 45 z" transform=" matrix(1 0 0 1 0 0) " stroke-linecap="round"></path>
    </g>
  </symbol>
  <symbol xmlns="http://www.w3.org/2000/svg" xmlns:xlink="http://www.w3.org/1999/xlink" version="1.1" xml:space="preserve" viewBox="0 0 256 256" id="down-arrow">
    <defs></defs>
    <g transform="translate(1.4065934065934016 1.4065934065934016) scale(2.81 2.81)">
      <polygon points="45,69.52 0,30.25 8.52,20.48 45,52.31 81.48,20.48 90,30.25 " transform="  matrix(1 0 0 1 0 0) "></polygon>
    </g>
  </symbol>
  <symbol xmlns="http://www.w3.org/2000/svg" xmlns:xlink="http://www.w3.org/1999/xlink" version="1.1" xml:space="preserve" viewBox="0 0 256 256" id="facebook">
    <defs></defs>
    <g transform="translate(1.4065934065934016 1.4065934065934016) scale(2.81 2.81)">
      <path d="M 56 2 c 4.227 0 8.057 0.232 10.345 0.432 v 10.509 l -6.424 0.003 c -8.804 0 -9.933 5.234 -9.933 9.793 v 10.22 v 2 h 2 h 13.615 L 64.05 47.004 H 51.988 h -2 v 2 V 88 H 37.424 V 49.004 v -2 h -2 H 23.655 V 34.957 h 11.769 h 2 v -2 V 21.148 C 37.424 9.158 44.368 2 56 2 M 56 0 C 43.786 0 35.424 7.456 35.424 21.148 v 11.809 H 21.655 v 16.046 h 13.769 V 90 h 16.564 V 49.004 h 13.821 l 2.069 -16.046 h -15.89 v -10.22 c 0 -4.635 1.287 -7.793 7.933 -7.793 l 8.424 -0.004 V 0.63 C 66.879 0.436 61.851 0 56 0 L 56 0 z" transform=" matrix(1 0 0 1 0 0) " stroke-linecap="round"></path>
    </g>
  </symbol>
  <symbol xmlns="http://www.w3.org/2000/svg" xmlns:xlink="http://www.w3.org/1999/xlink" version="1.1" xml:space="preserve" viewBox="0 0 256 256" id="instregrim">
    <defs></defs>
    <g transform="translate(1.4065934065934016 1.4065934065934016) scale(2.81 2.81)">
      <path d="M 72.902 23.139 c -3.032 0 -5.5 -2.467 -5.5 -5.5 s 2.468 -5.5 5.5 -5.5 s 5.5 2.467 5.5 5.5 S 75.935 23.139 72.902 23.139 z M 72.902 14.139 c -1.93 0 -3.5 1.57 -3.5 3.5 s 1.57 3.5 3.5 3.5 s 3.5 -1.57 3.5 -3.5 S 74.832 14.139 72.902 14.139 z" transform=" matrix(1 0 0 1 0 0) " stroke-linecap="round"></path>
      <path d="M 80.077 90 H 9.923 C 4.451 90 0 85.549 0 80.077 V 9.923 C 0 4.451 4.451 0 9.923 0 h 70.154 C 85.549 0 90 4.451 90 9.923 v 70.154 C 90 85.549 85.549 90 80.077 90 z M 9.923 2 C 5.554 2 2 5.554 2 9.923 v 70.154 C 2 84.446 5.554 88 9.923 88 h 70.154 C 84.446 88 88 84.446 88 80.077 V 9.923 C 88 5.554 84.446 2 80.077 2 H 9.923 z" transform=" matrix(1 0 0 1 0 0) " stroke-linecap="round"></path>
      <path d="M 45.271 68.771 c -12.958 0 -23.5 -10.542 -23.5 -23.5 s 10.542 -23.5 23.5 -23.5 s 23.5 10.542 23.5 23.5 S 58.229 68.771 45.271 68.771 z M 45.271 23.771 c -11.855 0 -21.5 9.645 -21.5 21.5 c 0 11.855 9.645 21.5 21.5 21.5 c 11.855 0 21.5 -9.645 21.5 -21.5 C 66.771 33.416 57.126 23.771 45.271 23.771 z" transform=" matrix(1 0 0 1 0 0) " stroke-linecap="round"></path>
    </g>
  </symbol>
  <symbol xmlns="http://www.w3.org/2000/svg" xmlns:xlink="http://www.w3.org/1999/xlink" version="1.1" xml:space="preserve" viewBox="0 0 256 256" id="location">
    <defs></defs>
    <g transform="translate(1.4065934065934016 1.4065934065934016) scale(2.81 2.81)">
      <path d="M 45 90 c -0.354 0 -0.681 -0.187 -0.861 -0.491 l -4.712 -7.972 C 30.222 65.976 20.704 49.884 17.64 43.734 c -2.033 -4.169 -3.062 -8.646 -3.062 -13.313 C 14.578 13.647 28.225 0 45 0 c 16.774 0 30.422 13.647 30.422 30.422 c 0 4.664 -1.028 9.141 -3.056 13.305 c -0.012 0.023 -0.023 0.045 -0.036 0.067 c -3.095 6.193 -12.581 22.231 -21.757 37.743 l -4.712 7.972 C 45.681 89.813 45.354 90 45 90 z M 45 2 C 29.328 2 16.578 14.75 16.578 30.422 c 0 4.359 0.96 8.542 2.854 12.43 c 3.027 6.073 12.522 22.126 21.705 37.649 L 45 87.035 l 3.853 -6.517 c 9.187 -15.531 18.686 -31.591 21.717 -37.676 c 0.009 -0.017 0.018 -0.033 0.026 -0.049 c 1.875 -3.874 2.826 -8.036 2.826 -12.372 C 73.422 14.75 60.672 2 45 2 z" transform=" matrix(1 0 0 1 0 0) " stroke-linecap="round"></path>
      <path d="M 45 42.436 c -7.279 0 -13.2 -5.922 -13.2 -13.201 s 5.921 -13.2 13.2 -13.2 c 7.278 0 13.2 5.921 13.2 13.2 S 52.278 42.436 45 42.436 z M 45 18.035 c -6.176 0 -11.2 5.024 -11.2 11.2 c 0 6.176 5.024 11.201 11.2 11.201 s 11.2 -5.024 11.2 -11.201 C 56.2 23.059 51.176 18.035 45 18.035 z" transform=" matrix(1 0 0 1 0 0) " stroke-linecap="round"></path>
    </g>
  </symbol>
  <symbol xmlns="http://www.w3.org/2000/svg" xmlns:xlink="http://www.w3.org/1999/xlink" version="1.1" xml:space="preserve" viewBox="0 0 256 256" id="mail">
    <defs></defs>
    <g transform="translate(1.4065934065934016 1.4065934065934016) scale(2.81 2.81)">
      <path d="M 45 51.815 l 45 -33.87 v -1.967 c 0 -2.03 -1.646 -3.676 -3.676 -3.676 H 3.676 C 1.646 12.302 0 13.948 0 15.978 v 1.967 L 45 51.815 z" transform=" matrix(1 0 0 1 0 0) " stroke-linecap="round"></path>
      <path d="M 47.405 60.019 c -0.712 0.536 -1.559 0.804 -2.405 0.804 s -1.693 -0.268 -2.405 -0.804 L 0 27.958 v 46.064 c 0 2.03 1.646 3.676 3.676 3.676 h 82.648 c 2.03 0 3.676 -1.646 3.676 -3.676 V 27.958 L 47.405 60.019 z" transform=" matrix(1 0 0 1 0 0) " stroke-linecap="round"></path>
    </g>
  </symbol>
</svg>